<?xml version="1.0" encoding="utf-8"?>
<svg viewBox="52.8101 116.8425 692.96 271.0002" width="800" height="340" preserveAspectRatio="none"
    xmlns="http://www.w3.org/2000/svg">
    <g transform="matrix(1, 0, 0, 1, 24.290090560913086, 2.3425600528717325)" id="object-0">
        <g id="freepik--Number--inject-91" transform="matrix(1, 0, 0, 1, -0.92822, -101.950081)">
            <path d="M265.84,391.65V352H214.19v-25.4l44.3-105h37.79V327.2h16.37V352H296.28v39.68Zm-26-64.45h26V255Z"
                style="fill:#263238" />
            <path
                d="M373.53,391.74q-15.33,0-25.4-6.3A39.14,39.14,0,0,1,333,368.12q-5-11-5-25.5V266.41q0-14.9,4.82-26.13a37.69,37.69,0,0,1,14.91-17.53q10.08-6.3,25.82-6.3,15.54,0,25.51,6.3a38,38,0,0,1,14.8,17.53q4.82,11.22,4.82,26.13v76.21q0,14.47-5,25.5a39.14,39.14,0,0,1-15.12,17.32Q388.43,391.74,373.53,391.74Zm0-28.55q5.67,0,8.19-3.57a20.6,20.6,0,0,0,3.36-8.5,55.72,55.72,0,0,0,.84-9.13V267a67,67,0,0,0-.74-9.66,20.4,20.4,0,0,0-3.25-8.71q-2.52-3.66-8.4-3.67t-8.5,3.67a19.64,19.64,0,0,0-3.36,8.71,67,67,0,0,0-.74,9.66V342a54.64,54.64,0,0,0,.84,9.13,19,19,0,0,0,3.57,8.5Q368.07,363.19,373.53,363.19Z"
                style="fill:#263238" />
            <path d="M487.94,391.65V352H436.3v-25.4l44.29-105h37.79V327.2h16.37V352H518.38v39.68Zm-26-64.45h26V255Z"
                style="fill:#263238" />
        </g>
        <g id="freepik--Floor--inject-91" transform="matrix(1, 0, 0, 1, 0.789993, -92.499908)">
            <path d="M720.11,309.64c-65.38,42.86-194.5,72-343.1,72-153.16,0-285.63-31-348.94-76V478h692Z"
                style="fill:#fff" />
            <path
                d="M377,382.17c-74.05,0-146.07-7.31-208.27-21.14-60.58-13.46-109.32-32.47-141-55l.58-.81c31.53,22.42,80.14,41.37,140.6,54.81C231.09,373.87,303,381.17,377,381.17c134.14,0,257-23.71,328.65-63.42l.49.88C634.36,358.41,511.32,382.17,377,382.17Z"
                style="fill:#263238" />
            <path
                d="M711.44,315.61l-.51-.86c3.18-1.87,6.28-3.8,9.21-5.72l.55.83C717.74,311.8,714.63,313.73,711.44,315.61Z"
                style="fill:#263238" />
        </g>
    </g>
</svg>