<?xml version="1.0" encoding="utf-8"?>
<svg viewBox="75.8211 147.5224 692.96 240.3203" width="800" height="340" preserveAspectRatio="none"
    xmlns="http://www.w3.org/2000/svg">
    <g id="object-0">
        <g id="freepik--Text--inject-114" transform="matrix(2.344349, 0, 0, 2.344349, 292.241333, -633.85614)" style="">
            <path
                d="M 13.612 376.663 L 13.612 382.513 C 13.612 387.013 15.612 388.633 18.742 388.633 C 21.872 388.633 23.872 387.013 23.872 382.513 L 23.872 368.663 C 23.872 364.163 21.872 362.453 18.742 362.453 C 15.612 362.453 13.612 364.163 13.612 368.663 L 13.612 370.553 L 4.252 370.553 L 6.052 334.013 L 32.152 334.013 L 32.152 343.013 L 14.962 343.013 L 14.152 358.013 C 15.952 354.994 19.282 353.225 22.792 353.423 C 30.082 353.423 33.792 358.553 33.792 367.823 L 33.792 381.823 C 33.792 391.903 28.792 397.663 19.032 397.663 C 9.272 397.663 4.272 391.903 4.272 381.823 L 4.272 376.663 L 13.612 376.663 Z"
                style="fill:#263238" />
            <path
                d="M 41.332 349.143 C 41.332 339.063 46.642 333.303 56.332 333.303 C 66.022 333.303 71.332 339.063 71.332 349.143 L 71.332 381.903 C 71.332 391.983 66.022 397.743 56.332 397.743 C 46.642 397.743 41.332 391.983 41.332 381.903 L 41.332 349.143 Z M 51.232 382.533 C 51.232 387.033 53.232 388.743 56.362 388.743 C 59.492 388.743 61.492 387.033 61.492 382.533 L 61.492 348.533 C 61.492 344.033 59.492 342.323 56.362 342.323 C 53.232 342.323 51.232 344.033 51.232 348.533 L 51.232 382.533 Z"
                style="fill:#263238" />
            <path
                d="M 78.772 349.143 C 78.772 339.063 84.082 333.303 93.772 333.303 C 103.462 333.303 108.772 339.063 108.772 349.143 L 108.772 381.903 C 108.772 391.983 103.462 397.743 93.772 397.743 C 84.082 397.743 78.772 391.983 78.772 381.903 L 78.772 349.143 Z M 88.672 382.533 C 88.672 387.033 90.672 388.743 93.802 388.743 C 96.932 388.743 98.932 387.033 98.932 382.533 L 98.932 348.533 C 98.932 344.033 96.932 342.323 93.802 342.323 C 90.672 342.323 88.672 344.033 88.672 348.533 L 88.672 382.533 Z"
                style="fill:#263238" />
        </g>
        <g id="freepik--Floor--inject-91" transform="matrix(1, 0, 0, 1, 48.091133, -90.157349)">
            <path d="M720.11,309.64c-65.38,42.86-194.5,72-343.1,72-153.16,0-285.63-31-348.94-76V478h692Z"
                style="fill:#fff" />
            <path
                d="M377,382.17c-74.05,0-146.07-7.31-208.27-21.14-60.58-13.46-109.32-32.47-141-55l.58-.81c31.53,22.42,80.14,41.37,140.6,54.81C231.09,373.87,303,381.17,377,381.17c134.14,0,257-23.71,328.65-63.42l.49.88C634.36,358.41,511.32,382.17,377,382.17Z"
                style="fill:#263238" />
            <path
                d="M711.44,315.61l-.51-.86c3.18-1.87,6.28-3.8,9.21-5.72l.55.83C717.74,311.8,714.63,313.73,711.44,315.61Z"
                style="fill:#263238" />
        </g>
    </g>
</svg>