<svg width="15" height="18" viewBox="0 0 15 18" fill="none" xmlns="http://www.w3.org/2000/svg">
<path d="M14.1667 3.99935H10.8333V3.16602C10.8333 2.50297 10.5699 1.86709 10.1011 1.39825C9.63226 0.929408 8.99637 0.666016 8.33333 0.666016H6.66667C6.00363 0.666016 5.36774 0.929408 4.8989 1.39825C4.43006 1.86709 4.16667 2.50297 4.16667 3.16602V3.99935H0.833333C0.61232 3.99935 0.400358 4.08715 0.244078 4.24343C0.0877973 4.39971 0 4.61167 0 4.83268C0 5.0537 0.0877973 5.26566 0.244078 5.42194C0.400358 5.57822 0.61232 5.66602 0.833333 5.66602H1.66667V14.8327C1.66667 15.4957 1.93006 16.1316 2.3989 16.6005C2.86774 17.0693 3.50363 17.3327 4.16667 17.3327H10.8333C11.4964 17.3327 12.1323 17.0693 12.6011 16.6005C13.0699 16.1316 13.3333 15.4957 13.3333 14.8327V5.66602H14.1667C14.3877 5.66602 14.5996 5.57822 14.7559 5.42194C14.9122 5.26566 15 5.0537 15 4.83268C15 4.61167 14.9122 4.39971 14.7559 4.24343C14.5996 4.08715 14.3877 3.99935 14.1667 3.99935ZM5.83333 3.16602C5.83333 2.945 5.92113 2.73304 6.07741 2.57676C6.23369 2.42048 6.44565 2.33268 6.66667 2.33268H8.33333C8.55435 2.33268 8.76631 2.42048 8.92259 2.57676C9.07887 2.73304 9.16667 2.945 9.16667 3.16602V3.99935H5.83333V3.16602ZM11.6667 14.8327C11.6667 15.0537 11.5789 15.2657 11.4226 15.4219C11.2663 15.5782 11.0543 15.666 10.8333 15.666H4.16667C3.94565 15.666 3.73369 15.5782 3.57741 15.4219C3.42113 15.2657 3.33333 15.0537 3.33333 14.8327V5.66602H11.6667V14.8327Z" fill="white"/>
</svg>
