<svg width="23" height="22" viewBox="0 0 23 22" fill="none" xmlns="http://www.w3.org/2000/svg">
<path d="M6.58301 19.6932V9.91615H8.31634C8.44273 9.91615 8.56912 9.92969 8.69551 9.95677C8.8219 9.98385 8.94829 10.0155 9.07467 10.0516L16.5768 12.8411C16.8295 12.9314 17.0327 13.0939 17.1861 13.3286C17.3396 13.5634 17.4163 13.8071 17.4163 14.0599C17.4163 14.4391 17.2854 14.746 17.0236 14.9807C16.7618 15.2155 16.4594 15.3328 16.1163 15.3328H13.2726C13.1823 15.3328 13.1146 15.3283 13.0695 15.3193C13.0243 15.3102 12.9656 15.2877 12.8934 15.2516L11.1601 14.5745L10.808 15.6307L12.8934 16.362C12.9295 16.38 12.9837 16.3936 13.0559 16.4026C13.1281 16.4116 13.1913 16.4161 13.2455 16.4161H20.6663C21.2441 16.4161 21.7497 16.6238 22.183 17.0391C22.6163 17.4543 22.833 17.9689 22.833 18.5828L14.1934 21.8328L6.58301 19.6932ZM0.0830078 21.8328V9.91615H4.41634V21.8328H0.0830078ZM13.0018 9.97031L8.39759 5.36615L9.94134 3.84948L13.0018 6.9099L19.1497 0.789062L20.6663 2.30573L13.0018 9.97031Z" fill="#211E1E"/>
</svg>
