<svg width="21" height="21" viewBox="0 0 21 21" fill="none" xmlns="http://www.w3.org/2000/svg">
<path d="M11.925 9.04922L7.675 4.79922L9.1 3.39922L11.925 6.22422L17.6 0.574219L19 1.97422L11.925 9.04922ZM6 16.4992L12.95 18.3992L18.9 16.5492C18.8167 16.3992 18.6958 16.2701 18.5375 16.1617C18.3792 16.0534 18.2 15.9992 18 15.9992H12.95C12.5 15.9992 12.1417 15.9826 11.875 15.9492C11.6083 15.9159 11.3333 15.8492 11.05 15.7492L8.725 14.9742L9.275 13.0242L11.3 13.6992C11.5833 13.7826 11.9167 13.8492 12.3 13.8992C12.6833 13.9492 13.25 13.9826 14 13.9992C14 13.8159 13.9458 13.6409 13.8375 13.4742C13.7292 13.3076 13.6 13.1992 13.45 13.1492L7.6 10.9992H6V16.4992ZM0 19.9992V8.99922H7.6C7.71667 8.99922 7.83333 9.01172 7.95 9.03672C8.06667 9.06172 8.175 9.09089 8.275 9.12422L14.15 11.2992C14.7 11.4992 15.1458 11.8492 15.4875 12.3492C15.8292 12.8492 16 13.3992 16 13.9992H18C18.8333 13.9992 19.5417 14.2742 20.125 14.8242C20.7083 15.3742 21 16.0992 21 16.9992V17.9992L13 20.4992L6 18.5492V19.9992H0ZM2 17.9992H4V10.9992H2V17.9992Z" fill="#D04040"/>
</svg>
