<svg width="20" height="22" viewBox="0 0 20 22" fill="none" xmlns="http://www.w3.org/2000/svg">
<path d="M10 13.166C9.69306 13.166 9.43576 13.0622 9.22813 12.8546C9.02049 12.6469 8.91667 12.3896 8.91667 12.0827C8.91667 11.7757 9.02049 11.5184 9.22813 11.3108C9.43576 11.1032 9.69306 10.9993 10 10.9993C10.3069 10.9993 10.5642 11.1032 10.7719 11.3108C10.9795 11.5184 11.0833 11.7757 11.0833 12.0827C11.0833 12.3896 10.9795 12.6469 10.7719 12.8546C10.5642 13.0622 10.3069 13.166 10 13.166ZM5.66667 13.166C5.35972 13.166 5.10243 13.0622 4.89479 12.8546C4.68715 12.6469 4.58333 12.3896 4.58333 12.0827C4.58333 11.7757 4.68715 11.5184 4.89479 11.3108C5.10243 11.1032 5.35972 10.9993 5.66667 10.9993C5.97361 10.9993 6.2309 11.1032 6.43854 11.3108C6.64618 11.5184 6.75 11.7757 6.75 12.0827C6.75 12.3896 6.64618 12.6469 6.43854 12.8546C6.2309 13.0622 5.97361 13.166 5.66667 13.166ZM14.3333 13.166C14.0264 13.166 13.7691 13.0622 13.5615 12.8546C13.3538 12.6469 13.25 12.3896 13.25 12.0827C13.25 11.7757 13.3538 11.5184 13.5615 11.3108C13.7691 11.1032 14.0264 10.9993 14.3333 10.9993C14.6403 10.9993 14.8976 11.1032 15.1052 11.3108C15.3128 11.5184 15.4167 11.7757 15.4167 12.0827C15.4167 12.3896 15.3128 12.6469 15.1052 12.8546C14.8976 13.0622 14.6403 13.166 14.3333 13.166ZM10 17.4993C9.69306 17.4993 9.43576 17.3955 9.22813 17.1879C9.02049 16.9803 8.91667 16.723 8.91667 16.416C8.91667 16.1091 9.02049 15.8518 9.22813 15.6441C9.43576 15.4365 9.69306 15.3327 10 15.3327C10.3069 15.3327 10.5642 15.4365 10.7719 15.6441C10.9795 15.8518 11.0833 16.1091 11.0833 16.416C11.0833 16.723 10.9795 16.9803 10.7719 17.1879C10.5642 17.3955 10.3069 17.4993 10 17.4993ZM5.66667 17.4993C5.35972 17.4993 5.10243 17.3955 4.89479 17.1879C4.68715 16.9803 4.58333 16.723 4.58333 16.416C4.58333 16.1091 4.68715 15.8518 4.89479 15.6441C5.10243 15.4365 5.35972 15.3327 5.66667 15.3327C5.97361 15.3327 6.2309 15.4365 6.43854 15.6441C6.64618 15.8518 6.75 16.1091 6.75 16.416C6.75 16.723 6.64618 16.9803 6.43854 17.1879C6.2309 17.3955 5.97361 17.4993 5.66667 17.4993ZM14.3333 17.4993C14.0264 17.4993 13.7691 17.3955 13.5615 17.1879C13.3538 16.9803 13.25 16.723 13.25 16.416C13.25 16.1091 13.3538 15.8518 13.5615 15.6441C13.7691 15.4365 14.0264 15.3327 14.3333 15.3327C14.6403 15.3327 14.8976 15.4365 15.1052 15.6441C15.3128 15.8518 15.4167 16.1091 15.4167 16.416C15.4167 16.723 15.3128 16.9803 15.1052 17.1879C14.8976 17.3955 14.6403 17.4993 14.3333 17.4993ZM2.41667 21.8327C1.82083 21.8327 1.31076 21.6205 0.886458 21.1962C0.462153 20.7719 0.25 20.2618 0.25 19.666V4.49935C0.25 3.90352 0.462153 3.39345 0.886458 2.96914C1.31076 2.54484 1.82083 2.33268 2.41667 2.33268H3.5V0.166016H5.66667V2.33268H14.3333V0.166016H16.5V2.33268H17.5833C18.1792 2.33268 18.6892 2.54484 19.1135 2.96914C19.5378 3.39345 19.75 3.90352 19.75 4.49935V19.666C19.75 20.2618 19.5378 20.7719 19.1135 21.1962C18.6892 21.6205 18.1792 21.8327 17.5833 21.8327H2.41667ZM2.41667 19.666H17.5833V8.83268H2.41667V19.666Z" fill="#211E1E"/>
</svg>
