<svg width="17" height="18" viewBox="0 0 17 18" fill="none" xmlns="http://www.w3.org/2000/svg">
<path d="M16.8337 5.0327C16.8343 4.92302 16.8133 4.81431 16.7718 4.71277C16.7303 4.61124 16.6692 4.5189 16.592 4.44103L13.0587 0.907696C12.9808 0.830462 12.8885 0.769357 12.7869 0.727887C12.6854 0.686416 12.5767 0.665395 12.467 0.66603C12.3573 0.665395 12.2486 0.686416 12.1471 0.727887C12.0456 0.769357 11.9532 0.830462 11.8753 0.907696L9.51701 3.26603L0.408673 12.3744C0.331438 12.4522 0.270334 12.5446 0.228863 12.6461C0.187393 12.7476 0.166372 12.8564 0.167006 12.966V16.4994C0.167006 16.7204 0.254803 16.9323 0.411084 17.0886C0.567364 17.2449 0.779326 17.3327 1.00034 17.3327H4.53367C4.65028 17.339 4.76692 17.3208 4.87602 17.2792C4.98513 17.2375 5.08427 17.1734 5.16701 17.091L14.2253 7.9827L16.592 5.66603C16.6681 5.58526 16.73 5.49231 16.7753 5.39103C16.7834 5.3246 16.7834 5.25745 16.7753 5.19103C16.7792 5.15224 16.7792 5.11315 16.7753 5.07436L16.8337 5.0327ZM4.19201 15.666H1.83367V13.3077L10.1087 5.0327L12.467 7.39103L4.19201 15.666ZM13.642 6.21603L11.2837 3.8577L12.467 2.6827L14.817 5.0327L13.642 6.21603Z" fill="white"/>
</svg>
