<svg width="22" height="22" viewBox="0 0 22 22" fill="none" xmlns="http://www.w3.org/2000/svg">
<path d="M11 14C11.9667 14 12.7917 13.6583 13.475 12.975C14.1583 12.2917 14.5 11.4667 14.5 10.5C14.5 9.53333 14.1583 8.70833 13.475 8.025C12.7917 7.34167 11.9667 7 11 7C10.0333 7 9.20833 7.34167 8.525 8.025C7.84167 8.70833 7.5 9.53333 7.5 10.5C7.5 11.4667 7.84167 12.2917 8.525 12.975C9.20833 13.6583 10.0333 14 11 14ZM10 22V20H8V18H10V15.9C8.7 15.6667 7.625 15.0417 6.775 14.025C5.925 13.0083 5.5 11.8333 5.5 10.5C5.5 9.95 5.57917 9.40833 5.7375 8.875C5.89583 8.34167 6.13333 7.85 6.45 7.4L5.8 6.75L4.4 8.15L3 6.75L4.4 5.325L2.5 3.425V6H0.5V0H6.5V2H3.925L5.825 3.9L7.25 2.5L8.65 3.9L7.25 5.325L7.9 5.975C8.35 5.64167 8.84167 5.39583 9.375 5.2375C9.90833 5.07917 10.45 5 11 5C11.55 5 12.0917 5.07917 12.625 5.2375C13.1583 5.39583 13.65 5.64167 14.1 5.975L18.075 2H15.5V0H21.5V6H19.5V3.425L15.525 7.375C15.8417 7.84167 16.0833 8.3375 16.25 8.8625C16.4167 9.3875 16.5 9.93333 16.5 10.5C16.5 11.8333 16.075 13.0083 15.225 14.025C14.375 15.0417 13.3 15.6667 12 15.9V18H14V20H12V22H10Z" fill="#D04040"/>
</svg>
