<svg width="20" height="20" viewBox="0 0 20 20" fill="none" xmlns="http://www.w3.org/2000/svg">
<path d="M13.1796 14.5749L13.9249 13.8025L10.5417 10.4193V5.58217H9.45833V10.8537L13.1796 14.5749ZM9.45833 3.5H10.5417V1.33333H9.45833V3.5ZM16.5 10.5417H18.6667V9.45833H16.5V10.5417ZM9.45833 18.6667H10.5417V16.5H9.45833V18.6667ZM1.33333 10.5417H3.5V9.45833H1.33333V10.5417ZM10.0033 19.75C8.65486 19.75 7.38736 19.4943 6.20075 18.983C5.01414 18.4709 3.98172 17.7762 3.1035 16.8987C2.22528 16.0212 1.53014 14.9898 1.01808 13.8047C0.506028 12.6195 0.25 11.3524 0.25 10.0033C0.25 8.65414 0.506028 7.38664 1.01808 6.20075C1.52942 5.01414 2.22311 3.98172 3.09917 3.1035C3.97522 2.22528 5.00692 1.53014 6.19425 1.01808C7.38158 0.506028 8.64908 0.25 9.99675 0.25C11.3444 0.25 12.6119 0.506028 13.7993 1.01808C14.9859 1.52942 16.0183 2.22347 16.8965 3.10025C17.7747 3.97703 18.4699 5.00872 18.9819 6.19533C19.494 7.38194 19.75 8.64908 19.75 9.99675C19.75 11.3444 19.4943 12.6119 18.983 13.7993C18.4717 14.9866 17.7769 16.019 16.8987 16.8965C16.0204 17.774 14.9891 18.4691 13.8047 18.9819C12.6202 19.4947 11.3531 19.7507 10.0033 19.75Z" fill="#211E1E"/>
</svg>
