<svg width="20" height="20" viewBox="0 0 20 20" fill="none" xmlns="http://www.w3.org/2000/svg">
<path d="M9.44208 17.1673H10.5038V15.8955C11.2816 15.8305 12.0269 15.5514 12.7398 15.0581C13.4526 14.5655 13.809 13.8003 13.809 12.7625C13.809 12.0042 13.5782 11.3578 13.1168 10.8233C12.6553 10.2889 11.7745 9.78694 10.4745 9.3175C9.28067 8.90006 8.51764 8.54219 8.18542 8.24392C7.85319 7.94564 7.68708 7.51989 7.68708 6.96667C7.68708 6.41344 7.90303 5.95303 8.33492 5.58542C8.76681 5.21781 9.33989 5.03364 10.0542 5.03292C10.6045 5.03292 11.0631 5.15931 11.43 5.41208C11.7969 5.66486 12.0937 5.98444 12.3205 6.37083L13.263 6.00033C13.0088 5.47961 12.6361 5.04339 12.145 4.69167C11.6539 4.33994 11.1252 4.14422 10.559 4.1045V2.83375H9.49625V4.1045C8.55158 4.26122 7.83658 4.61331 7.35125 5.16075C6.86592 5.70819 6.62433 6.31017 6.6265 6.96667C6.6265 7.74594 6.87133 8.36958 7.361 8.83758C7.85067 9.30558 8.67653 9.74975 9.83858 10.1701C11.0043 10.5998 11.7871 10.9876 12.1873 11.3336C12.5874 11.6795 12.7878 12.1558 12.7885 12.7625C12.7885 13.5252 12.5104 14.0741 11.9543 14.4092C11.3982 14.745 10.8013 14.9129 10.1636 14.9129C9.54031 14.9129 8.97733 14.7313 8.47467 14.368C7.97272 14.0047 7.57189 13.4876 7.27217 12.8167L6.31775 13.2283C6.62614 13.9708 7.03961 14.5493 7.55817 14.9638C8.07672 15.3784 8.70506 15.6709 9.44317 15.8413L9.44208 17.1673ZM10 19.75C8.65378 19.75 7.38772 19.4936 6.20183 18.9808C5.01594 18.4673 3.98425 17.7718 3.10675 16.8943C2.22853 16.0161 1.53303 14.9841 1.02025 13.7982C0.50675 12.6123 0.25 11.3462 0.25 10C0.25 8.65378 0.506389 7.38772 1.01917 6.20183C1.53194 5.01594 2.22781 3.98425 3.10675 3.10675C3.98569 2.22925 5.01739 1.53339 6.20183 1.01917C7.38845 0.506389 8.6545 0.25 10 0.25C11.3455 0.25 12.6116 0.506389 13.7982 1.01917C14.9841 1.53267 16.0158 2.22853 16.8933 3.10675C17.7715 3.98425 18.467 5.01594 18.9797 6.20183C19.4932 7.38845 19.75 8.6545 19.75 10C19.75 11.3455 19.4936 12.6116 18.9808 13.7982C18.4673 14.9841 17.7718 16.0158 16.8943 16.8933C16.0161 17.7715 14.9841 18.467 13.7982 18.9797C12.6123 19.4932 11.3462 19.75 10 19.75Z" fill="#211E1E"/>
</svg>
