<svg width="18" height="22" viewBox="0 0 18 22" fill="none" xmlns="http://www.w3.org/2000/svg">
<path d="M6.70843 1.70833C6.55459 1.70833 6.42568 1.65633 6.32168 1.55233C6.21768 1.44833 6.16604 1.31942 6.16676 1.16558C6.16748 1.01175 6.21912 0.883194 6.32168 0.779917C6.42423 0.676639 6.55315 0.625 6.70843 0.625H11.2909C11.4448 0.625 11.5737 0.677 11.6777 0.781C11.7817 0.885 11.8337 1.01392 11.8337 1.16775C11.8337 1.32158 11.7817 1.45014 11.6777 1.55342C11.5737 1.65669 11.4451 1.70833 11.292 1.70833H6.70843ZM8.99968 13.7507C9.15351 13.7507 9.28207 13.6987 9.38534 13.5947C9.48862 13.4907 9.54026 13.3621 9.54026 13.209V8.62542C9.54026 8.47158 9.48826 8.34267 9.38426 8.23867C9.28026 8.13467 9.15134 8.08303 8.99751 8.08375C8.84368 8.08447 8.71512 8.13611 8.61184 8.23867C8.50857 8.34122 8.45693 8.47014 8.45693 8.62542V13.2079C8.45693 13.3618 8.50893 13.4907 8.61293 13.5947C8.71693 13.6987 8.84584 13.7507 8.99968 13.7507ZM8.99968 21.75C7.80873 21.75 6.6864 21.5239 5.63268 21.0718C4.57895 20.6197 3.65812 20.0001 2.87018 19.2128C2.08223 18.4256 1.46257 17.5048 1.01118 16.4503C0.559787 15.3959 0.333732 14.2736 0.33301 13.0833C0.332287 11.8931 0.558343 10.7708 1.01118 9.71633C1.46401 8.66189 2.08368 7.74106 2.87018 6.95383C3.65668 6.16661 4.57751 5.54694 5.63268 5.09483C6.68784 4.64272 7.81018 4.41667 8.99968 4.41667C10.0498 4.41667 11.0652 4.60444 12.046 4.98C13.0268 5.35556 13.9267 5.88603 14.7457 6.57142L15.5452 5.77083C15.6463 5.66972 15.7709 5.61556 15.9189 5.60833C16.067 5.60111 16.1981 5.65528 16.3122 5.77083C16.4263 5.88639 16.4841 6.01422 16.4855 6.15433C16.487 6.29444 16.4292 6.42228 16.3122 6.53783L15.5127 7.33733C16.1988 8.15706 16.7293 9.05731 17.1041 10.0381C17.4789 11.0189 17.6663 12.0339 17.6663 13.0833C17.6663 14.2743 17.4403 15.3966 16.9882 16.4503C16.5361 17.5041 15.9164 18.4249 15.1292 19.2128C14.342 20.0008 13.4211 20.6204 12.3667 21.0718C11.3122 21.5232 10.1899 21.7493 8.99968 21.75Z" fill="#211E1E"/>
</svg>
