<svg width="444" height="90" viewBox="0 0 444 90" fill="none" xmlns="http://www.w3.org/2000/svg">
<path d="M374.668 44.165C373.348 44.165 372.116 42.966 372.116 39.985C372.116 37.026 373.348 35.838 374.668 35.838C375.988 35.838 377.209 37.026 377.209 39.985C377.209 42.966 375.988 44.165 374.668 44.165ZM374.668 43.824C375.482 43.824 376.296 42.911 376.296 39.985C376.296 37.103 375.482 36.19 374.668 36.19C373.843 36.19 373.04 37.103 373.04 39.985C373.04 42.911 373.843 43.824 374.668 43.824ZM379.955 44.165C379.57 44.165 379.284 43.857 379.284 43.494C379.284 43.12 379.57 42.823 379.955 42.823C380.351 42.823 380.637 43.12 380.637 43.494C380.637 43.857 380.351 44.165 379.955 44.165ZM383.026 44V43.703L384.621 43.527H385.424L386.898 43.703V44.011L383.026 44ZM384.533 44C384.555 43.164 384.566 42.306 384.566 41.481V36.564L382.982 36.828V36.498L385.347 35.882L385.512 36.014L385.468 37.741V41.481C385.468 42.306 385.479 43.164 385.501 44H384.533Z" fill="black"/>
<rect y="41" width="362" height="18" fill="#3083FF"/>
<rect y="63" width="362" height="5" fill="#323232"/>
<rect y="41" width="242" height="18" fill="#F0C300"/>
<path d="M1.089 79.773L3.476 79.168L3.641 79.289L3.597 81.016V84.481C3.597 85.306 3.608 86.164 3.63 87H2.662C2.684 86.164 2.695 85.306 2.695 84.481V79.85L1.089 80.103V79.773ZM3.542 86.538L5.291 86.703V87H0.935V86.703L2.772 86.538H3.542ZM6.92811 87V86.703L8.12711 86.582H8.47911L9.62311 86.703V87H6.92811ZM7.83011 87C7.86311 86.472 7.87411 85.24 7.87411 84.492V83.81C7.87411 83.073 7.86311 82.523 7.83011 81.973L6.86211 81.918V81.643L8.55611 81.192L8.69911 81.291L8.77611 82.534V84.492C8.77611 85.24 8.78711 86.472 8.80911 87H7.83011ZM10.5471 87V86.703L11.7241 86.582H12.0871L13.2201 86.703V87H10.5471ZM11.4491 87C11.4711 86.472 11.4821 85.262 11.4821 84.492V83.238C11.4821 82.171 11.1081 81.764 10.5251 81.764C9.96411 81.764 9.34811 82.072 8.58911 82.93L8.49011 82.545H8.61111C9.31511 81.632 10.0521 81.17 10.8551 81.17C11.8121 81.17 12.3621 81.753 12.3621 83.238V84.492C12.3621 85.262 12.3731 86.472 12.3951 87H11.4491ZM14.1441 87V86.703L15.3101 86.582H15.6731L16.8281 86.703V87H14.1441ZM15.0351 87C15.0571 86.472 15.0681 85.262 15.0681 84.492V83.238C15.0681 82.127 14.7051 81.764 14.0671 81.764C13.5281 81.764 12.9011 82.028 12.1641 82.864L12.0541 82.468H12.1751C12.8791 81.566 13.6161 81.17 14.4081 81.17C15.4091 81.17 15.9591 81.753 15.9591 83.227V84.492C15.9591 85.262 15.9701 86.472 15.9921 87H15.0351Z" fill="black"/>
<path d="M108.089 79.773L110.476 79.168L110.641 79.289L110.597 81.016V84.481C110.597 85.306 110.608 86.164 110.63 87H109.662C109.684 86.164 109.695 85.306 109.695 84.481V79.85L108.089 80.103V79.773ZM110.542 86.538L112.291 86.703V87H107.935V86.703L109.772 86.538H110.542ZM113.928 87V86.703L115.127 86.582H115.479L116.623 86.703V87H113.928ZM114.83 87C114.863 86.472 114.874 85.24 114.874 84.492V83.81C114.874 83.073 114.863 82.523 114.83 81.973L113.862 81.918V81.643L115.556 81.192L115.699 81.291L115.776 82.534V84.492C115.776 85.24 115.787 86.472 115.809 87H114.83ZM117.547 87V86.703L118.724 86.582H119.087L120.22 86.703V87H117.547ZM118.449 87C118.471 86.472 118.482 85.262 118.482 84.492V83.238C118.482 82.171 118.108 81.764 117.525 81.764C116.964 81.764 116.348 82.072 115.589 82.93L115.49 82.545H115.611C116.315 81.632 117.052 81.17 117.855 81.17C118.812 81.17 119.362 81.753 119.362 83.238V84.492C119.362 85.262 119.373 86.472 119.395 87H118.449ZM121.144 87V86.703L122.31 86.582H122.673L123.828 86.703V87H121.144ZM122.035 87C122.057 86.472 122.068 85.262 122.068 84.492V83.238C122.068 82.127 121.705 81.764 121.067 81.764C120.528 81.764 119.901 82.028 119.164 82.864L119.054 82.468H119.175C119.879 81.566 120.616 81.17 121.408 81.17C122.409 81.17 122.959 81.753 122.959 83.227V84.492C122.959 85.262 122.97 86.472 122.992 87H122.035ZM125.078 87V86.703L126.277 86.582H126.629L127.773 86.703V87H125.078ZM125.98 87C126.013 86.472 126.024 85.24 126.024 84.492V83.81C126.024 83.073 126.013 82.523 125.98 81.973L125.012 81.918V81.643L126.706 81.192L126.849 81.291L126.926 82.534V84.492C126.926 85.24 126.937 86.472 126.959 87H125.98ZM128.697 87V86.703L129.874 86.582H130.237L131.37 86.703V87H128.697ZM129.599 87C129.621 86.472 129.632 85.262 129.632 84.492V83.238C129.632 82.171 129.258 81.764 128.675 81.764C128.114 81.764 127.498 82.072 126.739 82.93L126.64 82.545H126.761C127.465 81.632 128.202 81.17 129.005 81.17C129.962 81.17 130.512 81.753 130.512 83.238V84.492C130.512 85.262 130.523 86.472 130.545 87H129.599ZM132.294 87V86.703L133.46 86.582H133.823L134.978 86.703V87H132.294ZM133.185 87C133.207 86.472 133.218 85.262 133.218 84.492V83.238C133.218 82.127 132.855 81.764 132.217 81.764C131.678 81.764 131.051 82.028 130.314 82.864L130.204 82.468H130.325C131.029 81.566 131.766 81.17 132.558 81.17C133.559 81.17 134.109 81.753 134.109 83.227V84.492C134.109 85.262 134.12 86.472 134.142 87H133.185Z" fill="black"/>
<path d="M199.089 79.773L201.476 79.168L201.641 79.289L201.597 81.016V84.481C201.597 85.306 201.608 86.164 201.63 87H200.662C200.684 86.164 200.695 85.306 200.695 84.481V79.85L199.089 80.103V79.773ZM201.542 86.538L203.291 86.703V87H198.935V86.703L200.772 86.538H201.542ZM205.555 89.2L205.753 85.9L205.566 81.39L206.413 81.192L206.512 81.269C206.446 83.667 206.402 84.734 206.402 85.889L206.248 86.098L206.501 89.079L205.665 89.277L205.555 89.2ZM210.23 87.165C209.625 87.165 209.328 86.692 209.306 85.625V85.592L209.24 81.39L210.087 81.192L210.175 81.269C210.043 83.81 209.988 84.822 209.999 85.691C209.999 86.417 210.175 86.582 210.549 86.582C210.758 86.582 210.901 86.505 211.055 86.428L211.143 86.637C210.956 86.934 210.648 87.165 210.23 87.165ZM207.634 87.165C207.018 87.165 206.391 86.703 206.127 85.944H206.105L206.314 85.504C206.699 86.208 207.161 86.439 207.733 86.439C208.393 86.439 208.932 86.043 209.361 85.163L209.493 85.295H209.471C209.108 86.472 208.481 87.165 207.634 87.165ZM212.254 87V86.703L213.453 86.582H213.805L214.949 86.703V87H212.254ZM213.156 87C213.189 86.472 213.2 85.24 213.2 84.492V83.81C213.2 83.073 213.189 82.523 213.156 81.973L212.188 81.918V81.643L213.882 81.192L214.025 81.291L214.102 82.534V84.492C214.102 85.24 214.113 86.472 214.135 87H213.156ZM215.873 87V86.703L217.05 86.582H217.413L218.546 86.703V87H215.873ZM216.775 87C216.797 86.472 216.808 85.262 216.808 84.492V83.238C216.808 82.171 216.434 81.764 215.851 81.764C215.29 81.764 214.674 82.072 213.915 82.93L213.816 82.545H213.937C214.641 81.632 215.378 81.17 216.181 81.17C217.138 81.17 217.688 81.753 217.688 83.238V84.492C217.688 85.262 217.699 86.472 217.721 87H216.775ZM219.47 87V86.703L220.636 86.582H220.999L222.154 86.703V87H219.47ZM220.361 87C220.383 86.472 220.394 85.262 220.394 84.492V83.238C220.394 82.127 220.031 81.764 219.393 81.764C218.854 81.764 218.227 82.028 217.49 82.864L217.38 82.468H217.501C218.205 81.566 218.942 81.17 219.734 81.17C220.735 81.17 221.285 81.753 221.285 83.227V84.492C221.285 85.262 221.296 86.472 221.318 87H220.361ZM224.735 83.678C224.735 85.735 225.186 87.176 226.627 89.189L226.418 89.365C224.757 87.66 223.965 85.889 223.965 83.678C223.965 81.478 224.757 79.696 226.418 77.991L226.627 78.167C225.164 80.191 224.735 81.632 224.735 83.678ZM228.291 80.543L228.511 80.444C228.72 80.719 228.918 81.093 229.292 81.093C230.117 81.093 234.836 80.576 235.661 80.477C235.87 80.444 235.98 80.257 236.167 80.257C236.497 80.257 237.322 80.917 237.322 81.236C237.322 81.544 236.904 81.434 236.585 81.709C235.936 82.336 234.693 83.491 233.241 84.514L232.933 84.206C234.187 83.227 235.474 81.885 235.914 81.192C235.991 81.06 235.947 80.994 235.804 80.994C234.682 81.049 231.085 81.522 230.117 81.72C229.853 81.764 229.633 81.984 229.413 81.984C229.083 81.984 228.599 81.533 228.456 81.236C228.39 81.093 228.313 80.851 228.291 80.543ZM231.019 82.842C232.515 83.491 234.44 84.954 234.44 86.153C234.44 86.406 234.275 86.549 234.066 86.549C233.692 86.549 233.725 85.812 232.493 84.481C232.009 83.931 231.448 83.469 230.865 83.051L231.019 82.842ZM245.06 78.794L245.148 78.596C245.39 78.607 245.621 78.618 245.863 78.706C246.281 78.849 246.776 79.333 246.776 79.619C246.776 79.828 246.578 79.817 246.27 80.147C245.83 80.631 245.214 81.313 244.378 82.094C243.773 82.644 242.178 83.986 240.11 84.844L239.967 84.569C242.739 83.018 244.642 81.005 245.423 79.927C245.621 79.641 245.72 79.454 245.72 79.355C245.72 79.179 245.533 79.036 245.06 78.794ZM244.059 82.017L244.4 81.731C244.785 81.995 245.159 82.226 245.159 82.424C245.159 82.567 245.071 82.71 245.06 82.985C244.994 84.591 245.049 86.274 245.049 86.923C245.049 87.341 244.95 87.462 244.708 87.462C244.356 87.462 244.169 86.945 244.169 86.582C244.169 86.373 244.246 86.164 244.29 85.801C244.378 85.042 244.433 83.205 244.4 82.721C244.389 82.446 244.312 82.303 244.059 82.017ZM251.445 83.37C253.161 82.149 254.789 79.894 254.789 79.267C254.789 79.069 254.492 78.893 254.107 78.739L254.173 78.53C254.36 78.519 254.58 78.519 254.833 78.574C255.262 78.662 255.845 78.992 255.845 79.19C255.845 79.388 255.691 79.487 255.515 79.762C254.591 81.346 253.26 82.71 251.621 83.601L251.445 83.37ZM251.533 87.264C254.371 85.801 256.956 82.952 257.814 80.774C257.858 80.653 257.825 80.609 257.726 80.609C257.484 80.609 256.351 80.785 255.955 80.873C255.724 80.917 255.504 81.005 255.35 81.005C255.174 81.005 254.932 80.796 254.668 80.598L254.833 80.323C255.064 80.356 255.218 80.378 255.361 80.378C255.889 80.378 257.242 80.224 257.539 80.158C257.847 80.103 257.913 79.905 258.1 79.905C258.375 79.905 259.057 80.356 259.057 80.653C259.057 80.862 258.705 80.939 258.551 81.225C257.033 83.953 254.8 86.23 251.698 87.517L251.533 87.264ZM269.287 85.097L268.605 85.075C268.814 83.832 269.122 81.709 269.122 81.038C269.122 80.961 269.078 80.917 268.99 80.917C268.286 80.917 266.427 81.06 265.833 81.126C265.47 81.17 265.162 81.28 264.953 81.28C264.766 81.28 264.403 81.093 264.238 80.961V80.73C265.151 80.697 268.187 80.433 268.649 80.378C269.034 80.345 269.078 80.103 269.276 80.103C269.562 80.103 270.31 80.708 270.31 80.972C270.31 81.225 269.98 81.302 269.914 81.599C269.793 82.138 269.518 83.854 269.287 85.097ZM263.215 80.147C263.688 80.268 264.04 80.378 264.414 80.719C264.491 80.796 264.491 80.851 264.502 81.005C264.535 81.5 264.645 83.898 264.689 85.174C264.7 85.504 264.711 85.713 264.711 86.021C264.711 86.285 264.623 86.417 264.392 86.417C264.172 86.417 263.941 86.12 263.941 85.669C263.941 85.449 263.974 84.778 263.963 84.294C263.952 83.48 263.831 81.896 263.666 81.247C263.567 80.862 263.38 80.609 263.072 80.334L263.215 80.147ZM264.381 85.592L264.37 85.053C265.756 84.965 268.363 84.767 269.199 84.767C269.661 84.767 270.024 84.932 270.024 85.174C270.024 85.361 269.936 85.482 269.705 85.482C269.452 85.482 268.88 85.416 268.374 85.416C267.439 85.416 265.767 85.504 264.381 85.592ZM274.952 83.678C274.952 81.632 274.49 80.18 273.06 78.167L273.258 77.991C274.93 79.696 275.722 81.478 275.722 83.678C275.722 85.889 274.93 87.66 273.258 89.365L273.06 89.189C274.512 87.176 274.952 85.735 274.952 83.678Z" fill="black"/>
<path d="M351.139 79.773L353.526 79.168L353.691 79.289L353.647 81.016V84.481C353.647 85.306 353.658 86.164 353.68 87H352.712C352.734 86.164 352.745 85.306 352.745 84.481V79.85L351.139 80.103V79.773ZM353.592 86.538L355.341 86.703V87H350.985V86.703L352.822 86.538H353.592ZM356.978 87V86.703L358.177 86.582H358.529L359.673 86.703V87H356.978ZM357.88 87C357.913 86.472 357.924 85.24 357.924 84.492V83.821C357.924 83.073 357.913 82.523 357.88 81.973L356.912 81.918V81.643L358.606 81.192L358.749 81.291L358.826 82.567V84.492C358.826 85.24 358.837 86.472 358.859 87H357.88ZM360.718 87V86.703L361.906 86.582H362.269L363.413 86.703V87H360.718ZM361.62 87C361.642 86.472 361.653 85.262 361.653 84.492V83.216C361.653 82.138 361.279 81.764 360.641 81.764C360.146 81.764 359.431 82.028 358.639 82.908L358.54 82.545H358.65C359.453 81.555 360.245 81.17 361.015 81.17C361.972 81.17 362.544 81.753 362.544 83.238V84.492C362.544 85.262 362.566 86.472 362.588 87H361.62ZM364.691 87V86.703L365.89 86.582H366.242L367.386 86.703V87H364.691ZM365.593 87C365.626 86.472 365.637 85.24 365.637 84.492V83.81C365.637 83.073 365.626 82.523 365.593 81.973L364.625 81.918V81.643L366.319 81.192L366.462 81.291L366.539 82.534V84.492C366.539 85.24 366.55 86.472 366.572 87H365.593ZM368.31 87V86.703L369.487 86.582H369.85L370.983 86.703V87H368.31ZM369.212 87C369.234 86.472 369.245 85.262 369.245 84.492V83.238C369.245 82.171 368.871 81.764 368.288 81.764C367.727 81.764 367.111 82.072 366.352 82.93L366.253 82.545H366.374C367.078 81.632 367.815 81.17 368.618 81.17C369.575 81.17 370.125 81.753 370.125 83.238V84.492C370.125 85.262 370.136 86.472 370.158 87H369.212ZM371.907 87V86.703L373.073 86.582H373.436L374.591 86.703V87H371.907ZM372.798 87C372.82 86.472 372.831 85.262 372.831 84.492V83.238C372.831 82.127 372.468 81.764 371.83 81.764C371.291 81.764 370.664 82.028 369.927 82.864L369.817 82.468H369.938C370.642 81.566 371.379 81.17 372.171 81.17C373.172 81.17 373.722 81.753 373.722 83.227V84.492C373.722 85.262 373.733 86.472 373.755 87H372.798Z" fill="black"/>
<path d="M395.108 12.165C393.788 12.165 392.556 10.966 392.556 7.985C392.556 5.026 393.788 3.838 395.108 3.838C396.428 3.838 397.649 5.026 397.649 7.985C397.649 10.966 396.428 12.165 395.108 12.165ZM395.108 11.824C395.922 11.824 396.736 10.911 396.736 7.985C396.736 5.103 395.922 4.19 395.108 4.19C394.283 4.19 393.48 5.103 393.48 7.985C393.48 10.911 394.283 11.824 395.108 11.824ZM399.955 12.165C399.57 12.165 399.284 11.857 399.284 11.494C399.284 11.12 399.57 10.823 399.955 10.823C400.351 10.823 400.637 11.12 400.637 11.494C400.637 11.857 400.351 12.165 399.955 12.165ZM402.586 12V11.703L404.181 11.527H404.984L406.458 11.703V12.011L402.586 12ZM404.093 12C404.115 11.164 404.126 10.306 404.126 9.481V4.564L402.542 4.828V4.498L404.907 3.882L405.072 4.014L405.028 5.741V9.481C405.028 10.306 405.039 11.164 405.061 12H404.093Z" fill="black"/>
<path d="M319.664 12V11.703L321.259 11.527H322.062L323.536 11.703V12.011L319.664 12ZM321.171 12C321.193 11.164 321.204 10.306 321.204 9.481V4.564L319.62 4.828V4.498L321.985 3.882L322.15 4.014L322.106 5.741V9.481C322.106 10.306 322.117 11.164 322.139 12H321.171ZM327.085 12.165C325.765 12.165 324.533 10.966 324.533 7.985C324.533 5.026 325.765 3.838 327.085 3.838C328.405 3.838 329.626 5.026 329.626 7.985C329.626 10.966 328.405 12.165 327.085 12.165ZM327.085 11.824C327.899 11.824 328.713 10.911 328.713 7.985C328.713 5.103 327.899 4.19 327.085 4.19C326.26 4.19 325.457 5.103 325.457 7.985C325.457 10.911 326.26 11.824 327.085 11.824Z" fill="black"/>
<path d="M334.458 28.116H340.761V28.435H334.557L334.458 28.116ZM340.365 28.116H340.244L340.673 27.665L341.52 28.358C341.443 28.446 341.3 28.501 341.069 28.534C340.937 30.965 340.629 32.857 340.09 33.352C339.771 33.66 339.331 33.803 338.792 33.792C338.792 33.583 338.737 33.374 338.561 33.253C338.363 33.143 337.791 33.011 337.296 32.934L337.307 32.747C337.879 32.791 338.847 32.879 339.122 32.879C339.342 32.879 339.452 32.857 339.573 32.747C339.98 32.417 340.244 30.459 340.365 28.116ZM336.889 28.116H337.703C337.538 30.019 337.109 32.23 333.501 33.858L333.358 33.682C336.526 31.933 336.812 29.799 336.889 28.116ZM336.361 23.804L337.472 24.222C337.417 24.354 337.329 24.42 337.054 24.387C336.35 25.894 334.975 27.687 333.028 28.721L332.918 28.578C334.568 27.39 335.811 25.421 336.361 23.804ZM339.188 23.771C339.881 25.465 341.63 27.005 343.203 27.786L343.17 27.896C342.873 27.918 342.631 28.127 342.488 28.468C341.003 27.489 339.617 25.806 339.001 23.87L339.188 23.771ZM343.995 28.6H352.366L352.96 27.863C352.96 27.863 353.609 28.38 354.027 28.743C354.005 28.864 353.895 28.919 353.73 28.919H344.094L343.995 28.6ZM348.67 26.774L349.803 26.895C349.77 27.06 349.671 27.148 349.407 27.192V32.747C349.407 33.341 349.264 33.748 348.021 33.858C347.966 33.627 347.889 33.44 347.68 33.33C347.449 33.198 347.064 33.11 346.382 33.022V32.857C346.382 32.857 348.032 32.967 348.329 32.967C348.604 32.967 348.67 32.89 348.67 32.692V26.774ZM351.761 24.717H351.64L352.157 24.222L353.037 25.025C352.949 25.113 352.806 25.135 352.564 25.146C351.695 25.762 350.342 26.609 349.143 27.06H348.934C349.946 26.488 351.189 25.366 351.761 24.717ZM345.106 24.717H352.212V25.047H345.205L345.106 24.717Z" fill="black"/>
<path d="M374.24 27.918H379.421V28.237H374.24V27.918ZM374.24 29.546H379.421V29.865H374.24V29.546ZM378.97 26.345H378.86L379.267 25.916L380.158 26.587C380.081 26.675 379.905 26.763 379.685 26.807V30.074C379.674 30.14 379.322 30.316 379.08 30.316H378.97V26.345ZM373.976 26.345V25.993L374.746 26.345H379.498V26.675H374.691V30.206C374.691 30.272 374.394 30.426 374.097 30.426H373.976V26.345ZM376.473 29.557H377.188V32.813C377.188 33.385 377.034 33.781 375.967 33.88C375.956 33.66 375.879 33.473 375.736 33.352C375.56 33.231 375.241 33.143 374.68 33.088V32.923C374.68 32.923 375.945 33.011 376.198 33.011C376.418 33.011 376.473 32.945 376.473 32.802V29.557ZM374.647 30.624L375.659 31.108C375.593 31.218 375.505 31.273 375.263 31.218C374.691 31.999 373.657 32.923 372.48 33.462L372.37 33.319C373.338 32.626 374.24 31.493 374.647 30.624ZM378.112 30.789C381.313 31.878 380.939 33.77 380.048 33.253C379.74 32.472 378.75 31.46 377.991 30.888L378.112 30.789ZM372.062 24.629V24.519V24.233L372.909 24.629H372.766V27.346C372.766 29.304 372.656 31.977 371.028 33.847L370.874 33.737C371.952 31.834 372.062 29.502 372.062 27.346V24.629ZM372.414 24.629H379.443L379.982 23.947C379.982 23.947 380.609 24.431 381.005 24.772C380.972 24.893 380.851 24.948 380.697 24.948H372.414V24.629ZM376.352 24.893L377.474 25.157C377.43 25.289 377.298 25.377 377.078 25.388C376.902 25.718 376.704 26.169 376.473 26.532H376.11C376.198 26.07 376.297 25.377 376.352 24.893ZM381.995 28.6H390.366L390.96 27.863C390.96 27.863 391.609 28.38 392.027 28.743C392.005 28.864 391.895 28.919 391.73 28.919H382.094L381.995 28.6ZM386.67 26.774L387.803 26.895C387.77 27.06 387.671 27.148 387.407 27.192V32.747C387.407 33.341 387.264 33.748 386.021 33.858C385.966 33.627 385.889 33.44 385.68 33.33C385.449 33.198 385.064 33.11 384.382 33.022V32.857C384.382 32.857 386.032 32.967 386.329 32.967C386.604 32.967 386.67 32.89 386.67 32.692V26.774ZM389.761 24.717H389.64L390.157 24.222L391.037 25.025C390.949 25.113 390.806 25.135 390.564 25.146C389.695 25.762 388.342 26.609 387.143 27.06H386.934C387.946 26.488 389.189 25.366 389.761 24.717ZM383.106 24.717H390.212V25.047H383.205L383.106 24.717Z" fill="black"/>
<rect y="41" width="122" height="18" fill="#2E9648"/>
<line x1="0.5" y1="63" x2="0.499999" y2="75" stroke="#323232"/>
<line x1="122.5" y1="63" x2="122.5" y2="75" stroke="#323232"/>
<line x1="242.5" y1="63" x2="242.5" y2="75" stroke="#323232"/>
<line x1="362.5" y1="18" x2="362.5" y2="75" stroke="#323232"/>
<line x1="399.5" y1="18" x2="399.5" y2="64" stroke="#323232"/>
<line x1="324.5" y1="18" x2="324.5" y2="41" stroke="#323232"/>
<line x1="365" y1="65.5" x2="400" y2="65.5" stroke="#323232" stroke-width="5" stroke-dasharray="4 4"/>
</svg>
