<svg width="90" height="181" viewBox="0 0 90 181" fill="none" xmlns="http://www.w3.org/2000/svg">
<path id="Vector 4" d="M61.3117 82.5042L62.309 82.5773L61.3117 82.5042ZM89.1728 175.726L79.778 169.012L78.6614 180.505L89.1728 175.726ZM12.5251 0.311901C12.158 0.698961 11.8004 1.08999 11.4522 1.48487L12.9523 2.80762C13.2844 2.43101 13.6256 2.05787 13.9762 1.68833L12.5251 0.311901ZM9.47528 3.89897C8.83727 4.73952 8.23803 5.59494 7.67644 6.46406L9.35626 7.5495C9.89052 6.7227 10.4608 5.90856 11.0683 5.10817L9.47528 3.89897ZM6.08665 9.1423C5.58405 10.0675 5.12055 11.0057 4.69486 11.9557L6.52001 12.7735C6.92509 11.8695 7.36603 10.977 7.84406 10.097L6.08665 9.1423ZM3.52624 14.85C3.17133 15.8329 2.85379 16.8262 2.57224 17.8287L4.49774 18.3695C4.76643 17.4128 5.06923 16.4657 5.40736 15.5293L3.52624 14.85ZM1.83444 20.8606C1.62363 21.8791 1.44736 22.9051 1.30425 23.9375L3.2853 24.2121C3.4225 23.2225 3.5913 22.24 3.79292 21.266L1.83444 20.8606ZM0.974476 27.0316C0.896565 28.0654 0.849808 29.1041 0.832837 30.1464L2.83257 30.1789C2.84892 29.1748 2.89395 28.1754 2.96882 27.1819L0.974476 27.0316ZM0.868642 33.25C0.908652 34.2818 0.976219 35.3159 1.07005 36.3511L3.06188 36.1706C2.97107 35.1686 2.90578 34.1689 2.86714 33.1725L0.868642 33.25ZM1.42555 39.4338C1.56789 40.4534 1.73443 41.4729 1.92395 42.4913L3.89019 42.1253C3.70603 41.1358 3.54439 40.1461 3.40634 39.1573L1.42555 39.4338ZM2.5571 45.5282C2.78804 46.5295 3.0402 47.5288 3.31242 48.5248L5.24166 47.9975C4.97631 47.0266 4.73072 46.0533 4.50594 45.0787L2.5571 45.5282ZM4.18643 51.4966C4.49504 52.4771 4.82229 53.4534 5.16706 54.4245L7.05181 53.7554C6.71493 52.8065 6.39536 51.8531 6.09416 50.8961L4.18643 51.4966ZM6.25218 57.3195C6.63002 58.277 7.02422 59.2283 7.43371 60.1723L9.26855 59.3765C8.86777 58.4525 8.48209 57.5217 8.11256 56.5853L6.25218 57.3195ZM8.7087 62.9857C9.14899 63.9171 9.60357 64.8402 10.0714 65.754L11.8516 64.8426C11.3933 63.9473 10.948 63.043 10.5168 62.1309L8.7087 62.9857ZM11.5218 68.482C12.0195 69.3839 12.5295 70.2754 13.0507 71.1553L14.7714 70.136C14.2605 69.2736 13.7607 68.3998 13.273 67.5158L11.5218 68.482ZM14.6687 73.7935C15.2212 74.664 15.7842 75.5215 16.3566 76.3648L18.0114 75.2416C17.4506 74.4153 16.8988 73.575 16.3573 72.7218L14.6687 73.7935ZM18.1364 78.9003C18.7455 79.7395 19.3634 80.5624 19.9887 81.3677L21.5684 80.141C20.9564 79.3529 20.3515 78.5473 19.7549 77.7254L18.1364 78.9003ZM21.9216 83.7727C22.5909 84.5769 23.2669 85.3606 23.9483 86.1222L25.4388 84.7886C24.7737 84.0452 24.1133 83.2797 23.459 82.4934L21.9216 83.7727ZM26.0404 88.3738C26.7729 89.1323 27.5099 89.8644 28.2497 90.5683L29.6284 89.1195C28.9097 88.4356 28.1926 87.7233 27.479 86.9844L26.0404 88.3738ZM30.5503 92.6589C31.3445 93.3467 32.1401 94.0005 32.935 94.618L34.1621 93.0387C33.3966 92.4439 32.6283 91.8127 31.8595 91.147L30.5503 92.6589ZM35.4622 96.4602C36.3548 97.0675 37.2445 97.6261 38.1281 98.1327L39.1228 96.3976C38.2869 95.9184 37.4407 95.3872 36.5872 94.8066L35.4622 96.4602ZM40.9331 99.5721C41.9344 100.024 42.9257 100.402 43.902 100.7L44.4864 98.7876C43.5996 98.5167 42.6878 98.1696 41.7555 97.749L40.9331 99.5721ZM47.0498 101.384C48.1724 101.522 49.2697 101.535 50.3307 101.41L50.0961 99.4239C49.2114 99.5284 48.2757 99.5197 47.2937 99.399L47.0498 101.384ZM53.5458 100.536C54.5473 100.088 55.4829 99.4814 56.3418 98.7109L55.0062 97.2222C54.2986 97.857 53.5373 98.3488 52.7295 98.71L53.5458 100.536ZM58.4774 96.2124C59.0374 95.3692 59.5421 94.4251 59.9889 93.3788L58.1497 92.5932C57.7455 93.5394 57.2972 94.3745 56.8114 95.1059L58.4774 96.2124ZM61.0321 90.3819C61.305 89.4078 61.5408 88.3666 61.7382 87.2566L59.7691 86.9065C59.582 87.9586 59.3601 88.9363 59.1062 89.8424L61.0321 90.3819ZM62.1633 84.2169C62.2194 83.6838 62.268 83.1373 62.309 82.5773L60.3144 82.4312C60.2748 82.9709 60.2281 83.4963 60.1742 84.0075L62.1633 84.2169ZM62.309 82.5773C62.3512 82.0024 62.3801 81.445 62.3961 80.905L60.397 80.8457C60.3819 81.3552 60.3545 81.8835 60.3144 82.4312L62.309 82.5773ZM62.3394 77.8691C62.2539 76.7009 62.0924 75.6316 61.8572 74.6597L59.9133 75.13C60.1191 75.9807 60.2661 76.94 60.3448 78.0151L62.3394 77.8691ZM60.7109 71.6038C60.1314 70.5452 59.4072 69.6797 58.5494 69.0134L57.3226 70.5929C57.9432 71.0749 58.4953 71.7217 58.9566 72.5643L60.7109 71.6038ZM55.4289 67.5885C54.3765 67.367 53.2551 67.3382 52.0908 67.4725L52.3199 69.4593C53.309 69.3452 54.2103 69.3758 55.017 69.5456L55.4289 67.5885ZM48.965 68.175C48.0199 68.4811 47.051 68.8725 46.0659 69.3414L46.9253 71.1473C47.8419 70.711 48.7295 70.3535 49.5813 70.0776L48.965 68.175ZM43.3299 70.815C42.4665 71.332 41.5936 71.9022 40.7157 72.5217L41.8688 74.1558C42.709 73.5629 43.5401 73.0203 44.3574 72.5308L43.3299 70.815ZM38.2538 74.3774C37.4761 75.0007 36.697 75.6601 35.9196 76.3531L37.2504 77.8461C38.0029 77.1753 38.7553 76.5386 39.5046 75.938L38.2538 74.3774ZM33.6536 78.4734C32.9418 79.1714 32.2336 79.8963 31.5314 80.6463L32.9915 82.0132C33.6745 81.2835 34.3628 80.5791 35.0539 79.9015L33.6536 78.4734ZM29.4752 82.9354C28.8172 83.6984 28.1668 84.4828 27.5259 85.2872L29.0902 86.5334C29.7149 85.7492 30.3488 84.9848 30.9898 84.2415L29.4752 82.9354ZM25.6629 87.7198C25.0622 88.5359 24.4724 89.3694 23.8954 90.2188L25.5498 91.3426C26.1125 90.5142 26.6878 89.7013 27.2736 88.9054L25.6629 87.7198ZM22.2242 92.7823C21.6852 93.6446 21.1603 94.521 20.6512 95.4102L22.3869 96.4039C22.8829 95.5374 23.3946 94.6832 23.9202 93.8424L22.2242 92.7823ZM19.1829 98.0967C18.7118 99.001 18.2581 99.9166 17.8235 100.842L19.6338 101.692C20.0565 100.792 20.498 99.9011 20.9567 99.0207L19.1829 98.0967ZM16.5799 103.645C16.1858 104.588 15.8124 105.54 15.4616 106.499L17.34 107.186C17.6801 106.256 18.0424 105.332 18.4252 104.416L16.5799 103.645ZM14.4754 109.409C14.1702 110.387 13.8897 111.371 13.6355 112.36L15.5726 112.858C15.818 111.902 16.0893 110.951 16.3846 110.005L14.4754 109.409ZM12.95 115.363C12.7492 116.369 12.5771 117.38 12.4357 118.393L14.4165 118.67C14.5524 117.696 14.7179 116.724 14.9113 115.754L12.95 115.363ZM12.1037 121.462C12.0254 122.488 11.9802 123.515 11.9702 124.542L13.9701 124.562C13.9797 123.58 14.0229 122.598 14.0979 121.615L12.1037 121.462ZM12.0484 127.633C12.1113 128.662 12.2115 129.689 12.3512 130.713L14.3328 130.443C14.2 129.469 14.1046 128.491 14.0447 127.511L12.0484 127.633ZM12.8868 133.757C13.105 134.765 13.3638 135.767 13.6651 136.763L15.5795 136.184C15.2939 135.24 15.0485 134.29 14.8415 133.334L12.8868 133.757ZM14.6778 139.679C15.0545 140.637 15.4732 141.586 15.9357 142.527L17.7305 141.645C17.2923 140.753 16.8957 139.854 16.5389 138.947L14.6778 139.679ZM17.4017 145.231C17.927 146.114 18.4938 146.988 19.1034 147.851L20.737 146.697C20.1574 145.876 19.6191 145.047 19.1206 144.208L17.4017 145.231ZM20.9542 150.276C21.6104 151.074 22.3062 151.861 23.0427 152.637L24.493 151.26C23.7888 150.518 23.1246 149.767 22.4991 149.006L20.9542 150.276ZM25.1834 154.751C25.9313 155.444 26.7146 156.127 27.5341 156.798L28.8014 155.25C28.0128 154.605 27.2604 153.949 26.5431 153.284L25.1834 154.751ZM29.9451 158.662C30.7503 159.25 31.586 159.829 32.4528 160.396L33.5488 158.723C32.7098 158.174 31.902 157.615 31.1248 157.047L29.9451 158.662ZM35.1404 162.064C35.974 162.554 36.8333 163.036 37.7186 163.508L38.6598 161.743C37.7984 161.284 36.9633 160.816 36.1541 160.34L35.1404 162.064ZM40.4533 164.897C41.379 165.344 42.3307 165.783 43.3087 166.211L44.1116 164.38C43.1558 163.961 42.2267 163.533 41.3239 163.096L40.4533 164.897ZM46.0248 167.35C46.952 167.721 47.901 168.084 48.8724 168.439L49.5587 166.56C48.6061 166.212 47.6762 165.857 46.7685 165.493L46.0248 167.35ZM51.8536 169.478C52.7733 169.784 53.7116 170.083 54.6687 170.374L55.2512 168.461C54.31 168.174 53.3879 167.881 52.4846 167.58L51.8536 169.478ZM57.5476 171.213C58.5256 171.485 59.5221 171.75 60.5374 172.008L61.0296 170.07C60.0289 169.815 59.0471 169.554 58.0842 169.286L57.5476 171.213ZM63.5684 172.743C64.5056 172.959 65.4579 173.17 66.4254 173.374L66.8389 171.417C65.8834 171.216 64.9435 171.008 64.0188 170.794L63.5684 172.743ZM69.374 173.969C70.3723 174.161 71.3861 174.347 72.4155 174.526L72.7587 172.556C71.7406 172.378 70.7384 172.195 69.7518 172.005L69.374 173.969ZM75.5168 175.039C76.4637 175.188 77.4232 175.332 78.3955 175.47L78.6769 173.49C77.7141 173.353 76.7642 173.211 75.827 173.064L75.5168 175.039ZM81.3508 175.868C82.3488 175.996 83.3596 176.118 84.3835 176.234L84.6097 174.247C83.5948 174.132 82.593 174.011 81.6042 173.884L81.3508 175.868Z" fill="black"/>
</svg>
