<svg width="60" height="114" viewBox="0 0 60 114" fill="none" xmlns="http://www.w3.org/2000/svg">
<path id="Vector 4" d="M38.0007 0L40.358 11.3038L48.9688 3.6104L38.0007 0ZM1.08081 113.997C1.6166 113.953 2.14525 113.894 2.66677 113.82L2.38538 111.84C1.90386 111.908 1.41515 111.963 0.919186 112.003L1.08081 113.997ZM5.75034 113.187C6.77725 112.909 7.77203 112.57 8.73476 112.175L7.97482 110.325C7.08846 110.689 6.17291 111.001 5.2277 111.257L5.75034 113.187ZM11.5698 110.8C12.486 110.285 13.3681 109.716 14.2164 109.099L13.0407 107.481C12.2526 108.054 11.4355 108.581 10.5892 109.057L11.5698 110.8ZM16.6515 107.12C17.4224 106.423 18.1608 105.685 18.8671 104.91L17.3893 103.563C16.7242 104.292 16.0312 104.985 15.3103 105.636L16.6515 107.12ZM20.8659 102.515C21.4918 101.697 22.0882 100.848 22.6553 99.9744L20.9777 98.8855C20.4372 99.7182 19.8705 100.524 19.2773 101.3L20.8659 102.515ZM24.2502 97.3157C24.7485 96.417 25.2194 95.4977 25.6635 94.5621L23.8566 93.7046C23.4299 94.6038 22.978 95.4856 22.501 96.346L24.2502 97.3157ZM26.9064 91.7318C27.2928 90.7788 27.6534 89.8135 27.9885 88.8396L26.0973 88.1889C25.7735 89.1299 25.4254 90.0616 25.053 90.9802L26.9064 91.7318ZM28.9172 85.8976C29.2025 84.9074 29.4625 83.9122 29.6976 82.9158L27.7511 82.4565C27.5233 83.4218 27.2715 84.3855 26.9953 85.3438L28.9172 85.8976ZM30.3328 79.9024C30.5219 78.8857 30.6852 77.8716 30.823 76.8641L28.8415 76.593C28.708 77.5689 28.5497 78.5515 28.3665 79.5367L30.3328 79.9024ZM31.1661 73.7997C31.2566 72.7594 31.3192 71.7306 31.3542 70.7182L29.3554 70.6491C29.3216 71.6261 29.2611 72.6201 29.1737 73.6265L31.1661 73.7997ZM31.3744 67.6271C31.3505 66.57 31.2945 65.5372 31.2063 64.5349L29.214 64.71C29.2982 65.6669 29.352 66.6562 29.3749 67.6721L31.3744 67.6271ZM30.8178 61.4551C30.6376 60.3802 30.4146 59.3523 30.1483 58.3813L28.2195 58.9103C28.4661 59.8094 28.6752 60.7706 28.8453 61.7857L30.8178 61.4551ZM29.1012 55.3726C28.6465 54.3294 28.1188 53.3831 27.514 52.5606L25.9027 53.7453C26.4042 54.4274 26.8614 55.2393 27.2678 56.1718L29.1012 55.3726ZM25.049 50.2135C24.0501 49.5922 22.935 49.2302 21.7193 49.1754L21.6292 51.1733C22.4904 51.2122 23.2745 51.4651 23.9928 51.9118L25.049 50.2135ZM18.3568 49.7506C17.4303 50.0936 16.4758 50.5886 15.494 51.2377L16.597 52.906C17.4732 52.3268 18.2915 51.9074 19.0512 51.6261L18.3568 49.7506ZM12.9941 53.1729C12.601 53.52 12.2029 53.8908 11.7999 54.2859L13.2001 55.7141C13.5797 55.3419 13.9523 54.9949 14.3178 54.6722L12.9941 53.1729ZM11.7999 54.2859C11.3866 54.6912 11.0066 55.0904 10.6593 55.4837L12.1583 56.8076C12.4712 56.4533 12.8179 56.0887 13.2001 55.7141L11.7999 54.2859ZM8.79138 58.0673C8.17909 59.1722 7.83528 60.2488 7.77923 61.2849L9.77631 61.3929C9.81242 60.7255 10.039 59.9421 10.5407 59.0367L8.79138 58.0673ZM8.85299 64.7483C9.50697 65.607 10.4151 66.3079 11.4826 66.8695L12.4137 65.0995C11.5304 64.6348 10.877 64.1049 10.4441 63.5365L8.85299 64.7483ZM14.5127 68.0188C15.4639 68.2731 16.491 68.469 17.5767 68.607L17.8289 66.623C16.8201 66.4947 15.8824 66.3148 15.0293 66.0867L14.5127 68.0188ZM20.6569 68.8402C21.6508 68.8688 22.6793 68.8568 23.7333 68.8036L23.6325 66.8061C22.6284 66.8568 21.6528 66.868 20.7144 66.841L20.6569 68.8402ZM26.7913 68.5409C27.7857 68.4212 28.7952 68.267 29.8128 68.0776L29.4468 66.1114C28.471 66.293 27.5039 66.4407 26.5522 66.5553L26.7913 68.5409ZM32.7944 67.4258C33.7744 67.1794 34.7564 66.9003 35.7344 66.5879L35.1259 64.6827C34.1885 64.9821 33.2469 65.2498 32.3067 65.4861L32.7944 67.4258ZM38.6194 65.5628C39.568 65.1902 40.5077 64.7846 41.4326 64.3454L40.5748 62.5387C39.6929 62.9575 38.7956 63.3448 37.8882 63.7012L38.6194 65.5628ZM44.1545 62.9282C45.0459 62.4203 45.9173 61.8778 46.7628 61.2999L45.6342 59.6487C44.8358 60.1945 44.0107 60.7082 43.1644 61.1904L44.1545 62.9282ZM49.2302 59.4475C50.0266 58.7904 50.7907 58.0961 51.5164 57.3639L50.0959 55.956C49.4194 56.6386 48.7048 57.2881 47.9573 57.9049L49.2302 59.4475ZM53.5765 55.0467C54.219 54.2375 54.8165 53.3897 55.3628 52.5027L53.6599 51.4538C53.1567 52.2708 52.6051 53.0538 52.0101 53.8032L53.5765 55.0467ZM56.8297 49.75C57.2552 48.8134 57.6261 47.8403 57.9368 46.8303L56.0253 46.2421C55.7399 47.1696 55.3994 48.0629 55.0088 48.9227L56.8297 49.75ZM58.6615 43.8147C58.8363 42.8197 58.9556 41.7942 59.0152 40.7382L57.0184 40.6254C56.9631 41.6043 56.8528 42.5518 56.6916 43.4686L58.6615 43.8147ZM59.0194 37.6254C58.9674 36.6251 58.8644 35.6006 58.7078 34.5517L56.7297 34.8471C56.8772 35.8344 56.9735 36.795 57.0221 37.7292L59.0194 37.6254ZM58.1296 31.5633C57.8976 30.5825 57.6206 29.5821 57.2966 28.5619L55.3904 29.1674C55.6998 30.1415 55.9633 31.0935 56.1832 32.0235L58.1296 31.5633ZM56.295 25.7309C55.9329 24.8004 55.5329 23.8544 55.0937 22.8927L53.2744 23.7235C53.6983 24.6518 54.0834 25.5627 54.4312 26.4563L56.295 25.7309ZM53.7783 20.1934C53.3183 19.3043 52.8257 18.4023 52.2995 17.4875L50.5658 18.4847C51.0777 19.3747 51.5561 20.2506 52.0019 21.1124L53.7783 20.1934ZM50.7687 14.9416C50.2297 14.082 49.6618 13.2115 49.0641 12.3299L47.4086 13.4521C47.9934 14.3147 48.5483 15.1653 49.0742 16.0041L50.7687 14.9416ZM47.3822 9.929C46.8008 9.12468 46.1952 8.31145 45.5648 7.48925L43.9776 8.7062C44.5969 9.51389 45.1913 10.312 45.7613 11.1006L47.3822 9.929ZM43.6799 5.09616C43.0731 4.34555 42.4461 3.58768 41.7985 2.82252L40.2719 4.11468C40.9101 4.8686 41.5274 5.61483 42.1244 6.35341L43.6799 5.09616Z" fill="black"/>
</svg>
